<svg id="visual" viewBox="0 0 900 600" width="900" height="600" xmlns="http://www.w3.org/2000/svg" xmlns:xlink="http://www.w3.org/1999/xlink" version="1.1"><rect x="0" y="0" width="900" height="600" fill="#3c3943"></rect><path d="M0 106L50 130L100 132L150 108L200 133L250 132L300 98L350 141L400 132L450 137L500 128L550 123L600 95L650 104L700 121L750 125L800 128L850 96L900 134L900 601L850 601L800 601L750 601L700 601L650 601L600 601L550 601L500 601L450 601L400 601L350 601L300 601L250 601L200 601L150 601L100 601L50 601L0 601Z" fill="#67635c"></path><path d="M0 219L50 243L100 262L150 239L200 255L250 247L300 253L350 216L400 220L450 250L500 237L550 234L600 246L650 258L700 261L750 251L800 244L850 251L900 228L900 601L850 601L800 601L750 601L700 601L650 601L600 601L550 601L500 601L450 601L400 601L350 601L300 601L250 601L200 601L150 601L100 601L50 601L0 601Z" fill="#76736a"></path><path d="M0 358L50 360L100 367L150 335L200 339L250 362L300 361L350 362L400 371L450 338L500 377L550 360L600 362L650 367L700 373L750 347L800 336L850 367L900 346L900 601L850 601L800 601L750 601L700 601L650 601L600 601L550 601L500 601L450 601L400 601L350 601L300 601L250 601L200 601L150 601L100 601L50 601L0 601Z" fill="#858379"></path><path d="M0 461L50 492L100 456L150 496L200 474L250 482L300 472L350 472L400 458L450 502L500 469L550 499L600 478L650 462L700 470L750 472L800 469L850 465L900 499L900 601L850 601L800 601L750 601L700 601L650 601L600 601L550 601L500 601L450 601L400 601L350 601L300 601L250 601L200 601L150 601L100 601L50 601L0 601Z" fill="#949488"></path></svg>