<svg id="visual" viewBox="0 0 1920 1080" width="1920" height="1080" xmlns="http://www.w3.org/2000/svg" xmlns:xlink="http://www.w3.org/1999/xlink" version="1.1"><rect x="0" y="0" width="1920" height="1080" fill="#001220"></rect><path d="M0 826L32 831C64 836 128 846 192 856.7C256 867.3 320 878.7 384 876.5C448 874.3 512 858.7 576 850.2C640 841.7 704 840.3 768 849.2C832 858 896 877 960 875.3C1024 873.7 1088 851.3 1152 848.8C1216 846.3 1280 863.7 1344 865.3C1408 867 1472 853 1536 857.2C1600 861.3 1664 883.7 1728 884.8C1792 886 1856 866 1888 856L1920 846L1920 1081L1888 1081C1856 1081 1792 1081 1728 1081C1664 1081 1600 1081 1536 1081C1472 1081 1408 1081 1344 1081C1280 1081 1216 1081 1152 1081C1088 1081 1024 1081 960 1081C896 1081 832 1081 768 1081C704 1081 640 1081 576 1081C512 1081 448 1081 384 1081C320 1081 256 1081 192 1081C128 1081 64 1081 32 1081L0 1081Z" fill="#2c7198"></path><path d="M0 925L32 913C64 901 128 877 192 877.3C256 877.7 320 902.3 384 910.5C448 918.7 512 910.3 576 906.7C640 903 704 904 768 907C832 910 896 915 960 907.2C1024 899.3 1088 878.7 1152 871.7C1216 864.7 1280 871.3 1344 872.2C1408 873 1472 868 1536 866.3C1600 864.7 1664 866.3 1728 873.3C1792 880.3 1856 892.7 1888 898.8L1920 905L1920 1081L1888 1081C1856 1081 1792 1081 1728 1081C1664 1081 1600 1081 1536 1081C1472 1081 1408 1081 1344 1081C1280 1081 1216 1081 1152 1081C1088 1081 1024 1081 960 1081C896 1081 832 1081 768 1081C704 1081 640 1081 576 1081C512 1081 448 1081 384 1081C320 1081 256 1081 192 1081C128 1081 64 1081 32 1081L0 1081Z" fill="#006da6"></path><path d="M0 891L32 895.7C64 900.3 128 909.7 192 915.3C256 921 320 923 384 924C448 925 512 925 576 922C640 919 704 913 768 916C832 919 896 931 960 930.5C1024 930 1088 917 1152 916.8C1216 916.7 1280 929.3 1344 927.2C1408 925 1472 908 1536 903.7C1600 899.3 1664 907.7 1728 915.2C1792 922.7 1856 929.3 1888 932.7L1920 936L1920 1081L1888 1081C1856 1081 1792 1081 1728 1081C1664 1081 1600 1081 1536 1081C1472 1081 1408 1081 1344 1081C1280 1081 1216 1081 1152 1081C1088 1081 1024 1081 960 1081C896 1081 832 1081 768 1081C704 1081 640 1081 576 1081C512 1081 448 1081 384 1081C320 1081 256 1081 192 1081C128 1081 64 1081 32 1081L0 1081Z" fill="#0068b3"></path><path d="M0 940L32 945.5C64 951 128 962 192 957.3C256 952.7 320 932.3 384 930.5C448 928.7 512 945.3 576 954.3C640 963.3 704 964.7 768 963.7C832 962.7 896 959.3 960 951.5C1024 943.7 1088 931.3 1152 931C1216 930.7 1280 942.3 1344 947.3C1408 952.3 1472 950.7 1536 944C1600 937.3 1664 925.7 1728 922.3C1792 919 1856 924 1888 926.5L1920 929L1920 1081L1888 1081C1856 1081 1792 1081 1728 1081C1664 1081 1600 1081 1536 1081C1472 1081 1408 1081 1344 1081C1280 1081 1216 1081 1152 1081C1088 1081 1024 1081 960 1081C896 1081 832 1081 768 1081C704 1081 640 1081 576 1081C512 1081 448 1081 384 1081C320 1081 256 1081 192 1081C128 1081 64 1081 32 1081L0 1081Z" fill="#0061be"></path><path d="M0 976L32 972.3C64 968.7 128 961.3 192 956.8C256 952.3 320 950.7 384 952.2C448 953.7 512 958.3 576 962.3C640 966.3 704 969.7 768 971.7C832 973.7 896 974.3 960 969.2C1024 964 1088 953 1152 948.7C1216 944.3 1280 946.7 1344 947.8C1408 949 1472 949 1536 954.5C1600 960 1664 971 1728 972.5C1792 974 1856 966 1888 962L1920 958L1920 1081L1888 1081C1856 1081 1792 1081 1728 1081C1664 1081 1600 1081 1536 1081C1472 1081 1408 1081 1344 1081C1280 1081 1216 1081 1152 1081C1088 1081 1024 1081 960 1081C896 1081 832 1081 768 1081C704 1081 640 1081 576 1081C512 1081 448 1081 384 1081C320 1081 256 1081 192 1081C128 1081 64 1081 32 1081L0 1081Z" fill="#0058c6"></path><path d="M0 985L32 985C64 985 128 985 192 985.2C256 985.3 320 985.7 384 987.5C448 989.3 512 992.7 576 997.5C640 1002.3 704 1008.7 768 1006.2C832 1003.7 896 992.3 960 986.2C1024 980 1088 979 1152 982.2C1216 985.3 1280 992.7 1344 996.2C1408 999.7 1472 999.3 1536 999.3C1600 999.3 1664 999.7 1728 999.2C1792 998.7 1856 997.3 1888 996.7L1920 996L1920 1081L1888 1081C1856 1081 1792 1081 1728 1081C1664 1081 1600 1081 1536 1081C1472 1081 1408 1081 1344 1081C1280 1081 1216 1081 1152 1081C1088 1081 1024 1081 960 1081C896 1081 832 1081 768 1081C704 1081 640 1081 576 1081C512 1081 448 1081 384 1081C320 1081 256 1081 192 1081C128 1081 64 1081 32 1081L0 1081Z" fill="#004ecc"></path><path d="M0 1003L32 1005.8C64 1008.7 128 1014.3 192 1015.7C256 1017 320 1014 384 1012.2C448 1010.3 512 1009.7 576 1011.7C640 1013.7 704 1018.3 768 1022.5C832 1026.7 896 1030.3 960 1027C1024 1023.7 1088 1013.3 1152 1011.3C1216 1009.3 1280 1015.7 1344 1019.7C1408 1023.7 1472 1025.3 1536 1024.2C1600 1023 1664 1019 1728 1019.7C1792 1020.3 1856 1025.7 1888 1028.3L1920 1031L1920 1081L1888 1081C1856 1081 1792 1081 1728 1081C1664 1081 1600 1081 1536 1081C1472 1081 1408 1081 1344 1081C1280 1081 1216 1081 1152 1081C1088 1081 1024 1081 960 1081C896 1081 832 1081 768 1081C704 1081 640 1081 576 1081C512 1081 448 1081 384 1081C320 1081 256 1081 192 1081C128 1081 64 1081 32 1081L0 1081Z" fill="#0041d0"></path><path d="M0 1056L32 1053.5C64 1051 128 1046 192 1044.3C256 1042.7 320 1044.3 384 1043C448 1041.7 512 1037.3 576 1037.8C640 1038.3 704 1043.7 768 1043.8C832 1044 896 1039 960 1039.2C1024 1039.3 1088 1044.7 1152 1045.3C1216 1046 1280 1042 1344 1038.7C1408 1035.3 1472 1032.7 1536 1031.7C1600 1030.7 1664 1031.3 1728 1035C1792 1038.7 1856 1045.3 1888 1048.7L1920 1052L1920 1081L1888 1081C1856 1081 1792 1081 1728 1081C1664 1081 1600 1081 1536 1081C1472 1081 1408 1081 1344 1081C1280 1081 1216 1081 1152 1081C1088 1081 1024 1081 960 1081C896 1081 832 1081 768 1081C704 1081 640 1081 576 1081C512 1081 448 1081 384 1081C320 1081 256 1081 192 1081C128 1081 64 1081 32 1081L0 1081Z" fill="#2530d2"></path></svg>