<svg id="visual" viewBox="0 0 1920 1080" width="1920" height="1080" xmlns="http://www.w3.org/2000/svg" xmlns:xlink="http://www.w3.org/1999/xlink" version="1.1"><rect x="0" y="0" width="1920" height="1080" fill="#CCCCCC"></rect><path d="M0 549L83 547L167 655L250 404L334 677L417 728L501 599L584 497L668 573L751 523L835 413L918 438L1002 502L1085 610L1169 577L1252 723L1336 453L1419 559L1503 457L1586 677L1670 454L1753 611L1837 528L1920 401L1920 1081L1837 1081L1753 1081L1670 1081L1586 1081L1503 1081L1419 1081L1336 1081L1252 1081L1169 1081L1085 1081L1002 1081L918 1081L835 1081L751 1081L668 1081L584 1081L501 1081L417 1081L334 1081L250 1081L167 1081L83 1081L0 1081Z" fill="#514c70"></path><path d="M0 476L83 692L167 586L250 758L334 676L417 697L501 524L584 582L668 562L751 622L835 634L918 462L1002 494L1085 547L1169 634L1252 709L1336 667L1419 661L1503 540L1586 622L1670 521L1753 543L1837 708L1920 547L1920 1081L1837 1081L1753 1081L1670 1081L1586 1081L1503 1081L1419 1081L1336 1081L1252 1081L1169 1081L1085 1081L1002 1081L918 1081L835 1081L751 1081L668 1081L584 1081L501 1081L417 1081L334 1081L250 1081L167 1081L83 1081L0 1081Z" fill="#4a4568"></path><path d="M0 546L83 584L167 666L250 504L334 585L417 673L501 594L584 610L668 629L751 728L835 601L918 631L1002 635L1085 538L1169 629L1252 756L1336 650L1419 508L1503 560L1586 570L1670 637L1753 539L1837 697L1920 793L1920 1081L1837 1081L1753 1081L1670 1081L1586 1081L1503 1081L1419 1081L1336 1081L1252 1081L1169 1081L1085 1081L1002 1081L918 1081L835 1081L751 1081L668 1081L584 1081L501 1081L417 1081L334 1081L250 1081L167 1081L83 1081L0 1081Z" fill="#423e61"></path><path d="M0 791L83 830L167 662L250 808L334 727L417 674L501 730L584 760L668 589L751 713L835 687L918 792L1002 583L1085 773L1169 816L1252 595L1336 721L1419 655L1503 728L1586 743L1670 789L1753 751L1837 724L1920 574L1920 1081L1837 1081L1753 1081L1670 1081L1586 1081L1503 1081L1419 1081L1336 1081L1252 1081L1169 1081L1085 1081L1002 1081L918 1081L835 1081L751 1081L668 1081L584 1081L501 1081L417 1081L334 1081L250 1081L167 1081L83 1081L0 1081Z" fill="#3b3759"></path><path d="M0 705L83 659L167 691L250 811L334 810L417 712L501 679L584 642L668 711L751 797L835 821L918 635L1002 722L1085 762L1169 762L1252 642L1336 670L1419 692L1503 753L1586 650L1670 818L1753 673L1837 682L1920 619L1920 1081L1837 1081L1753 1081L1670 1081L1586 1081L1503 1081L1419 1081L1336 1081L1252 1081L1169 1081L1085 1081L1002 1081L918 1081L835 1081L751 1081L668 1081L584 1081L501 1081L417 1081L334 1081L250 1081L167 1081L83 1081L0 1081Z" fill="#343052"></path><path d="M0 689L83 742L167 683L250 779L334 802L417 743L501 671L584 826L668 812L751 709L835 808L918 775L1002 843L1085 829L1169 699L1252 849L1336 767L1419 710L1503 890L1586 859L1670 725L1753 847L1837 665L1920 867L1920 1081L1837 1081L1753 1081L1670 1081L1586 1081L1503 1081L1419 1081L1336 1081L1252 1081L1169 1081L1085 1081L1002 1081L918 1081L835 1081L751 1081L668 1081L584 1081L501 1081L417 1081L334 1081L250 1081L167 1081L83 1081L0 1081Z" fill="#2d294b"></path><path d="M0 807L83 827L167 734L250 720L334 796L417 871L501 780L584 807L668 741L751 875L835 760L918 913L1002 895L1085 790L1169 863L1252 913L1336 722L1419 876L1503 883L1586 750L1670 721L1753 738L1837 769L1920 752L1920 1081L1837 1081L1753 1081L1670 1081L1586 1081L1503 1081L1419 1081L1336 1081L1252 1081L1169 1081L1085 1081L1002 1081L918 1081L835 1081L751 1081L668 1081L584 1081L501 1081L417 1081L334 1081L250 1081L167 1081L83 1081L0 1081Z" fill="#262343"></path><path d="M0 799L83 868L167 867L250 813L334 886L417 897L501 930L584 811L668 862L751 907L835 874L918 895L1002 802L1085 947L1169 919L1252 914L1336 925L1419 893L1503 779L1586 869L1670 837L1753 947L1837 770L1920 871L1920 1081L1837 1081L1753 1081L1670 1081L1586 1081L1503 1081L1419 1081L1336 1081L1252 1081L1169 1081L1085 1081L1002 1081L918 1081L835 1081L751 1081L668 1081L584 1081L501 1081L417 1081L334 1081L250 1081L167 1081L83 1081L0 1081Z" fill="#1f1c3c"></path><path d="M0 945L83 935L167 867L250 943L334 822L417 929L501 885L584 959L668 890L751 855L835 899L918 884L1002 864L1085 872L1169 966L1252 910L1336 946L1419 828L1503 825L1586 911L1670 931L1753 864L1837 826L1920 908L1920 1081L1837 1081L1753 1081L1670 1081L1586 1081L1503 1081L1419 1081L1336 1081L1252 1081L1169 1081L1085 1081L1002 1081L918 1081L835 1081L751 1081L668 1081L584 1081L501 1081L417 1081L334 1081L250 1081L167 1081L83 1081L0 1081Z" fill="#181635"></path><path d="M0 919L83 880L167 970L250 948L334 883L417 983L501 941L584 914L668 975L751 949L835 999L918 878L1002 1004L1085 963L1169 885L1252 935L1336 988L1419 891L1503 967L1586 991L1670 894L1753 998L1837 917L1920 896L1920 1081L1837 1081L1753 1081L1670 1081L1586 1081L1503 1081L1419 1081L1336 1081L1252 1081L1169 1081L1085 1081L1002 1081L918 1081L835 1081L751 1081L668 1081L584 1081L501 1081L417 1081L334 1081L250 1081L167 1081L83 1081L0 1081Z" fill="#11102f"></path><path d="M0 989L83 1028L167 998L250 1032L334 934L417 981L501 1014L584 989L668 988L751 970L835 983L918 996L1002 1033L1085 985L1169 978L1252 936L1336 999L1419 980L1503 933L1586 938L1670 961L1753 966L1837 956L1920 968L1920 1081L1837 1081L1753 1081L1670 1081L1586 1081L1503 1081L1419 1081L1336 1081L1252 1081L1169 1081L1085 1081L1002 1081L918 1081L835 1081L751 1081L668 1081L584 1081L501 1081L417 1081L334 1081L250 1081L167 1081L83 1081L0 1081Z" fill="#0c0528"></path><path d="M0 988L83 1057L167 1036L250 1062L334 1040L417 1008L501 1025L584 999L668 1013L751 1014L835 1058L918 984L1002 1052L1085 1017L1169 1046L1252 1043L1336 1029L1419 1022L1503 1042L1586 992L1670 1002L1753 1040L1837 993L1920 1007L1920 1081L1837 1081L1753 1081L1670 1081L1586 1081L1503 1081L1419 1081L1336 1081L1252 1081L1169 1081L1085 1081L1002 1081L918 1081L835 1081L751 1081L668 1081L584 1081L501 1081L417 1081L334 1081L250 1081L167 1081L83 1081L0 1081Z" fill="#000000"></path></svg>